<svg preserveAspectRatio="none" overflow="visible" style="display: block;" width="79.2439" height="48" viewBox="0 0 79.2439 48" fill="none" xmlns="http://www.w3.org/2000/svg">
<g id="Frame 2147226497">
<path id="Vector" d="M20.5316 9H16.0148L11.9999 21.5508H14.4197L15.5309 18.1034H21.0873L22.2523 21.5508H24.672L20.5316 9ZM16.1761 16.1103L18.2732 9.6284L20.424 16.1103H16.1761ZM27.9834 21.5688V9H25.7609V21.5688H27.9834ZM32.8828 12.3038V9H30.6602V12.3038H29.316V14.0455H29.5311C29.5311 14.0455 30.6602 14.0455 30.6602 15.2844C30.6602 15.823 30.6602 19.2884 30.6602 19.2884C30.6602 20.5632 31.6819 21.5688 32.9366 21.5688H34.4601V19.5936C34.4601 19.5936 33.9403 19.5936 33.5818 19.5936C33.2054 19.5936 32.8828 19.2705 32.8828 18.8934V15.4459C32.8828 14.1173 30.0687 14.0455 29.6027 14.0455H34.4601V12.3038H32.8828ZM19.0619 31.3495C19.0619 31.3495 16.6601 30.7928 16.5884 30.7749C15.7818 30.5595 15.1007 30.1644 15.1007 29.3384C15.1007 28.4407 16.1941 27.7045 17.5742 27.7045C19.259 27.7045 20.209 28.746 20.209 29.7694H22.5569C22.5569 27.5789 20.8542 25.7295 17.5742 25.7295C14.7961 25.7295 12.7527 27.2197 12.7527 29.3564C12.7527 31.5649 14.1508 32.6244 16.1941 33.0912C16.1941 33.0912 18.6138 33.6478 18.6676 33.6657C19.5996 33.8991 20.3703 34.366 20.3703 35.2817C20.3703 36.4129 18.9722 37.1311 17.5025 37.0054C15.513 36.8438 14.7781 35.533 14.7781 34.5994H12.448C12.448 36.6463 14.1508 38.9087 17.5383 38.9985C20.0835 39.0523 22.7183 37.6519 22.7183 35.2817C22.7183 33.0912 21.2127 31.8702 19.0619 31.3495ZM28.4296 36.8977C27.0137 36.8977 26.2609 35.551 26.2609 34.0069C26.2609 32.4447 27.1929 31.1161 28.4117 31.1161C29.3796 31.1161 30.1503 31.8343 30.4192 32.8218H32.8209C32.4266 30.5055 30.5805 29.1409 28.3937 29.1409C25.9382 29.1409 23.8053 31.2956 23.9308 34.2941C24.0384 37.0952 26.0458 38.8548 28.4476 38.8548C30.688 38.8548 32.3549 37.3646 32.7851 35.3356H30.3116C30.1145 36.1436 29.3975 36.8977 28.4296 36.8977ZM39.1053 29.1769C37.7431 29.2846 36.5781 30.7031 36.5601 33.1989C36.5781 31.9599 37.1337 31.0622 38.4063 31.0622C39.8043 31.0622 40.2524 32.1036 40.2524 33.2528V38.6573H42.4928V32.4986C42.4928 30.344 40.7184 29.0512 39.1053 29.1769ZM34.3376 26.0886V38.6573H36.5601V26.0886H34.3376ZM48.5253 29.1409C46.1415 29.1409 43.9549 30.9185 43.9549 34.0069C43.9549 37.0952 46.1056 38.8368 48.5253 38.8548C50.963 38.8368 53.1138 37.0773 53.1138 34.0069C53.1138 30.9185 50.9092 29.1409 48.5253 29.1409ZM48.5253 36.8798C47.3424 36.8798 46.1953 35.946 46.1953 34.0069C46.1953 32.1754 47.3245 31.134 48.5253 31.1161C49.7442 31.134 50.8734 32.1934 50.8734 34.0069C50.8734 35.946 49.7263 36.8798 48.5253 36.8798ZM58.8525 29.1409C56.4686 29.1409 54.282 30.9185 54.282 34.0069C54.282 37.0952 56.4328 38.8368 58.8525 38.8548C61.2901 38.8368 63.4409 37.0773 63.4409 34.0069C63.4409 30.9185 61.2363 29.1409 58.8525 29.1409ZM58.8525 36.8798C57.6695 36.8798 56.5224 35.946 56.5224 34.0069C56.5224 32.1754 57.6516 31.134 58.8525 31.1161C60.0713 31.134 61.2005 32.1934 61.2005 34.0069C61.2005 35.946 60.0533 36.8798 58.8525 36.8798ZM67.2438 38.6573V26.0886H65.0213V38.6573H67.2438Z" fill="#1F1F1F"/>
</g>
</svg>
