<svg preserveAspectRatio="none" overflow="visible" style="display: block;" width="24" height="24" viewBox="0 0 24 24" fill="none" xmlns="http://www.w3.org/2000/svg">
<g id="list_check_filled">
<path id="Vector" fill-rule="evenodd" clip-rule="evenodd" d="M3.949 3.615C3.397 3.846 3.078 4.279 3.014 4.881C2.965 5.339 3.212 5.898 3.589 6.185C3.874 6.402 4.167 6.489 4.561 6.473C4.85 6.462 4.943 6.44 5.169 6.329C6.262 5.79 6.262 4.21 5.169 3.671C4.936 3.557 4.856 3.539 4.541 3.529C4.234 3.52 4.146 3.533 3.949 3.615ZM8.493 3.594C8.08 3.737 7.695 4.139 7.575 4.552C7.489 4.849 7.515 5.351 7.631 5.61C7.748 5.873 8.086 6.217 8.356 6.35L8.58 6.46H20.42L20.644 6.35C20.912 6.218 21.25 5.875 21.372 5.61C21.499 5.335 21.499 4.665 21.372 4.39C21.25 4.125 20.912 3.782 20.644 3.65L20.42 3.54L14.56 3.531C9.018 3.523 8.689 3.526 8.493 3.594ZM3.949 10.615C3.397 10.846 3.078 11.279 3.014 11.881C2.965 12.339 3.212 12.898 3.589 13.185C3.874 13.402 4.167 13.489 4.561 13.473C4.85 13.462 4.943 13.44 5.169 13.329C6.262 12.79 6.262 11.21 5.169 10.671C4.936 10.557 4.856 10.539 4.541 10.529C4.234 10.52 4.146 10.533 3.949 10.615ZM8.493 10.594C8.08 10.737 7.695 11.139 7.575 11.552C7.489 11.849 7.515 12.351 7.631 12.61C7.748 12.873 8.086 13.217 8.356 13.35L8.58 13.46H20.42L20.644 13.35C20.912 13.218 21.25 12.875 21.372 12.61C21.499 12.335 21.499 11.665 21.372 11.39C21.25 11.125 20.912 10.782 20.644 10.65L20.42 10.54L14.56 10.531C9.018 10.523 8.689 10.526 8.493 10.594ZM3.949 17.615C3.397 17.846 3.078 18.279 3.014 18.881C2.965 19.339 3.212 19.898 3.589 20.185C3.874 20.402 4.167 20.489 4.561 20.473C4.85 20.462 4.943 20.44 5.169 20.329C6.262 19.79 6.262 18.21 5.169 17.671C4.936 17.557 4.856 17.539 4.541 17.529C4.234 17.52 4.146 17.533 3.949 17.615ZM8.493 17.594C8.08 17.737 7.695 18.139 7.575 18.552C7.489 18.849 7.515 19.351 7.631 19.61C7.748 19.873 8.086 20.217 8.356 20.35L8.58 20.46H20.42L20.644 20.35C20.912 20.218 21.25 19.875 21.372 19.61C21.499 19.335 21.499 18.665 21.372 18.39C21.25 18.125 20.912 17.782 20.644 17.65L20.42 17.54L14.56 17.531C9.018 17.523 8.689 17.526 8.493 17.594Z" fill="#777777"/>
</g>
</svg>
