<svg preserveAspectRatio="none" overflow="visible" style="display: block;" width="24" height="24" viewBox="0 0 24 24" fill="none" xmlns="http://www.w3.org/2000/svg">
<g id="time_filled">
<path id="Vector" fill-rule="evenodd" clip-rule="evenodd" d="M11.28 2.024C9.171 2.209 7.301 2.95 5.719 4.225C4.044 5.576 2.811 7.505 2.303 9.571C2.087 10.452 2.026 10.981 2.026 12C2.026 13.019 2.087 13.548 2.303 14.429C3.189 18.036 6.142 20.931 9.76 21.74C10.604 21.929 11.047 21.976 12 21.976C12.953 21.976 13.396 21.929 14.24 21.74C17.858 20.931 20.811 18.036 21.697 14.429C21.91 13.56 21.973 13.016 21.975 12.02C21.976 11.044 21.932 10.616 21.74 9.76C21.282 7.711 20.082 5.735 18.48 4.391C16.656 2.86 14.565 2.07 12.22 2.023C11.9067 2.01406 11.5933 2.0144 11.28 2.024ZM12.34 6.066C12.593 6.153 12.847 6.407 12.934 6.66C12.992 6.832 13 7.123 13 9.216V11.578L14.436 13.019C15.802 14.389 15.876 14.471 15.936 14.677C16.016 14.948 16.016 15.013 15.936 15.283C15.8863 15.439 15.7991 15.5804 15.6821 15.6949C15.5652 15.8094 15.422 15.8936 15.265 15.94C15.1464 15.9795 15.021 15.9946 14.8964 15.9843C14.7717 15.974 14.6505 15.9385 14.54 15.88C14.436 15.83 13.806 15.227 12.755 14.171C11.273 12.684 11.124 12.522 11.064 12.336C11.005 12.154 10.999 11.852 11.009 9.416L11.02 6.7L11.131 6.511C11.2458 6.30432 11.431 6.14571 11.6529 6.06405C11.8748 5.98238 12.1186 5.98307 12.34 6.066Z" fill="#777777"/>
</g>
</svg>
