<svg preserveAspectRatio="none" overflow="visible" style="display: block;" width="32" height="32" viewBox="0 0 32 32" fill="none" xmlns="http://www.w3.org/2000/svg">
<g id="iMac_filled">
<path id="Vector" fill-rule="evenodd" clip-rule="evenodd" d="M6.10667 4.06267C5.12933 4.24933 4.24 5.15733 4.05733 6.156C3.97733 6.59867 3.97733 20.068 4.05733 20.5107C4.24533 21.5347 5.132 22.4213 6.156 22.6093C6.36267 22.6467 7.66267 22.6667 9.876 22.6667H13.28V22.8333C13.28 23.152 13.116 24.136 12.9853 24.6013C12.8253 25.172 12.704 25.4187 12.4493 25.688C12.1693 25.984 12.092 26.1653 12.0667 26.5867C12.0453 26.92 12.06 26.992 12.1973 27.252C12.3693 27.5787 12.696 27.8587 13.0013 27.944C13.32 28.0333 18.8 28.0147 19.0533 27.924C19.348 27.8187 19.6053 27.6027 19.772 27.3187C19.9013 27.1 19.92 27.0107 19.9187 26.64C19.9187 26.164 19.8627 26.0187 19.5507 25.688C19.296 25.4187 19.1747 25.172 19.0147 24.6013C18.884 24.136 18.72 23.152 18.72 22.8333V22.6667H22.124C24.3373 22.6667 25.6373 22.6467 25.844 22.6093C26.868 22.4213 27.7547 21.5347 27.9427 20.5107C28.0227 20.068 28.0227 6.59867 27.9427 6.156C27.7547 5.132 26.868 4.24533 25.844 4.05733C25.4347 3.98267 6.5 3.988 6.10667 4.06267ZM25.3333 18.6667V20H6.66667V17.3333H25.3333V18.6667Z" fill="#1F1F1F"/>
</g>
</svg>
